<?xml version="1.0" standalone="no"?>
<!DOCTYPE svg PUBLIC "-//W3C//DTD SVG 20010904//EN"
 "http://www.w3.org/TR/2001/REC-SVG-20010904/DTD/svg10.dtd">
<svg version="1.0" xmlns="http://www.w3.org/2000/svg"
 width="1280.000000pt" height="1188.000000pt" viewBox="0 0 1280.000000 1188.000000"
 preserveAspectRatio="xMidYMid meet">
<metadata>
Created by potrace 1.15, written by Peter Selinger 2001-2017
</metadata>
<g transform="translate(0.000000,1188.000000) scale(0.100000,-0.100000)"
fill="#000000" stroke="none">
<path d="M4065 11874 c-788 -63 -1473 -362 -1966 -857 -399 -401 -640 -878
-726 -1437 -25 -162 -25 -549 0 -710 78 -503 285 -971 607 -1375 70 -87 45
-67 -53 45 -41 46 -38 41 15 -29 312 -416 809 -784 1345 -996 89 -35 107 -45
105 -61 -2 -10 -33 -116 -69 -234 -133 -442 -196 -649 -243 -805 -27 -88 -85
-281 -130 -430 -45 -148 -104 -343 -131 -432 -27 -90 -71 -236 -98 -325 -27
-90 -86 -284 -131 -433 -45 -148 -103 -342 -130 -430 -27 -88 -85 -281 -130
-430 -45 -148 -103 -342 -130 -430 -27 -88 -65 -214 -85 -280 -20 -66 -39
-123 -43 -127 -5 -5 -129 -33 -277 -63 -149 -31 -358 -74 -465 -96 -107 -22
-238 -48 -290 -59 -52 -10 -250 -51 -440 -90 -190 -39 -401 -82 -470 -96 -69
-14 -126 -27 -128 -28 -1 -2 4 -21 12 -42 8 -22 38 -104 67 -184 28 -80 52
-146 53 -147 1 -2 36 4 77 13 41 8 160 33 264 55 105 22 210 44 235 49 25 5
155 32 290 60 135 28 265 55 290 60 25 5 133 28 240 50 107 22 240 50 295 61
55 12 103 23 107 26 14 8 9 -24 -16 -104 -27 -86 -82 -266 -206 -678 -70 -233
-181 -599 -226 -745 -8 -25 -14 -48 -14 -51 0 -4 35 -14 78 -24 42 -9 128 -27
191 -41 62 -14 116 -23 118 -20 5 4 107 344 398 1316 69 234 130 428 134 432
6 7 237 58 441 98 25 5 133 27 240 50 107 22 215 45 240 50 25 5 155 32 290
60 135 28 265 55 290 60 25 5 133 28 240 50 107 23 215 45 240 50 25 5 155 32
290 60 135 28 265 55 290 60 25 5 133 28 240 50 107 23 215 45 240 50 25 5
133 27 240 50 107 22 215 45 240 50 25 5 155 32 290 60 135 28 265 55 290 60
25 5 132 27 239 49 107 23 205 41 218 41 15 0 28 -10 39 -33 27 -51 126 -196
194 -282 127 -161 224 -260 435 -444 148 -129 421 -303 647 -410 l116 -56
-142 -2 c-264 -4 -661 -44 -773 -79 -146 -46 -102 -113 98 -148 553 -96 2587
-129 3814 -61 477 27 721 56 816 96 140 61 20 124 -301 158 -238 26 -663 50
-921 54 l-166 2 177 91 c320 164 535 319 781 564 187 186 262 276 390 470 202
304 346 661 414 1025 70 377 52 787 -51 1160 -136 492 -411 937 -788 1278
-572 516 -1251 779 -2056 794 -123 3 -264 0 -330 -7 -1065 -107 -1984 -715
-2450 -1623 -43 -84 -93 -188 -110 -232 -18 -44 -36 -83 -42 -86 -6 -4 -7 -12
-4 -18 4 -6 3 -11 -2 -11 -5 0 -9 -6 -10 -12 0 -7 -10 -49 -22 -93 -128 -472
-142 -912 -45 -1346 24 -108 102 -359 111 -359 3 0 3 10 -1 23 -8 29 10 2 19
-30 8 -26 7 -26 -219 -72 -82 -17 -305 -62 -495 -101 -190 -39 -388 -80 -440
-90 -52 -11 -250 -51 -440 -90 -190 -39 -365 -75 -390 -80 -25 -5 -200 -41
-390 -80 -190 -39 -388 -79 -440 -90 -52 -10 -250 -51 -440 -90 -190 -39 -421
-86 -515 -105 -93 -19 -244 -50 -335 -69 -91 -19 -165 -33 -166 -33 -1 1 25
88 56 192 32 105 162 539 290 965 127 426 344 1151 481 1610 138 459 289 963
336 1120 47 157 87 287 89 289 1 2 65 -8 141 -23 195 -36 284 -47 478 -56 993
-46 1982 371 2553 1077 306 379 489 810 548 1293 23 189 15 534 -16 710 -55
314 -159 609 -305 872 -495 889 -1403 1485 -2475 1623 -120 15 -518 27 -625
19z"/>
<path d="M1850 7626 c0 -2 8 -10 18 -17 15 -13 16 -12 3 4 -13 16 -21 21 -21
13z"/>
</g>
</svg>
